<svg viewBox="0 0 235 120" fill="none" xmlns="http://www.w3.org/2000/svg">
<g id="Vector">
<path d="M225.501 0.00512314H9.41097C4.26174 0.00512314 0.000312805 4.30043 0.000312805 9.49058V56.7389C0.000312805 62.0185 4.26174 66.2244 9.41097 66.2244H25.125C27.7884 66.2244 29.9191 68.372 29.9191 71.0566V110.341C29.9191 115.62 34.1805 119.826 39.3297 119.826H195.405C200.643 119.826 204.815 115.531 204.815 110.341V70.6986C204.815 68.2825 206.768 66.4033 209.077 66.4033H225.501C230.739 66.4033 234.912 62.108 234.912 56.9179V9.49058C235 4.30043 230.739 0.00512314 225.501 0.00512314ZM118.255 11.9962H125.269L132.904 37.947V11.9962H139.917V57.0968H132.904L125.269 31.1461V57.0968H118.255V11.9962ZM105.559 11.9962H113.461V57.0968H105.559V11.9962ZM46.1658 43.2266H35.0683L30.0079 57.0074H27.1669L32.2274 43.2266H22.7279L17.6675 57.0074H14.8265L19.887 43.2266H11.3641V40.4525H20.9523L25.2138 28.6405H15.6255V25.8664H26.2791L31.3396 12.0857H34.1805L29.1201 25.8664H38.5307L43.5912 12.0857H46.4321L41.3717 25.8664H50.4272V28.6405H40.3951L36.1337 40.4525H46.1658V43.2266ZM68.8046 95.844C68.8046 104.256 66.1412 108.461 57.7071 108.461H47.1424V63.3608H57.4408C65.6085 63.3608 68.3607 67.8351 68.3607 74.5465V75.9783C68.3607 80.9 66.1412 83.3161 62.9452 84.6584C66.4963 86.0901 68.7158 88.8642 68.7158 94.5018V95.844H68.8046ZM64.1881 57.6338C56.9969 57.6338 53.4457 53.249 53.4457 44.4794V41.3474H61.5247V47.164C61.5247 50.296 62.5013 51.1908 64.1881 51.1908C65.8749 51.1908 66.8515 50.296 66.8515 47.164V11.9962H74.9304V44.4794C74.9304 53.249 71.3792 57.6338 64.1881 57.6338ZM94.462 96.2915C94.462 105.061 90.9108 108.998 83.6308 108.998C76.3509 108.998 72.7109 104.972 72.7109 96.2915V63.3608H80.7899V98.6181C80.7899 101.571 81.6777 102.645 83.6308 102.645C85.4952 102.645 86.4718 101.571 86.4718 98.6181V63.3608H94.462V96.2915ZM90.2005 57.6338C82.9206 57.6338 79.2806 53.3385 79.2806 44.5689V24.5241C79.2806 15.7546 82.8318 11.4593 90.2005 11.4593C97.4805 11.4593 101.12 15.7546 101.12 24.5241V44.5689C101.12 53.3385 97.5693 57.6338 90.2005 57.6338ZM120.741 95.844C120.741 104.256 118.077 108.461 109.643 108.461H99.0785V63.3608H109.377C117.545 63.3608 120.297 67.8351 120.297 74.5465V75.9783C120.297 80.9 118.077 83.3161 114.881 84.6584C118.432 86.0901 120.652 88.8642 120.652 94.5018V95.844H120.741ZM146.398 95.844C146.398 104.256 143.735 108.461 135.301 108.461H124.736V63.3608H135.034C143.202 63.3608 145.954 67.8351 145.954 74.5465V75.9783C145.954 80.9 143.735 83.3161 140.539 84.6584C144.09 86.0901 146.309 88.8642 146.309 94.5018V95.844H146.398ZM167.705 108.461H150.304V63.3608H158.206V101.84H167.705V108.461ZM170.102 57.0968H162.201V18.6181H155.809V11.9962H176.494V18.6181H170.102V57.0968ZM188.48 69.9827H179.158V82.6897H187.947V89.2221H179.158V101.929H188.48V108.551H171.256V63.3608H188.48V69.9827ZM201.442 57.0968H193.54V37.768H187.858V57.0074H179.957V11.9962H187.858V31.2355H193.54V11.9962H201.442V57.0968ZM223.459 18.6181H214.137V31.325H222.926V37.8575H214.137V50.5644H223.459V57.1863H206.236V11.9962H223.459V18.6181Z" fill="#EA1B0E"/>
<path d="M10.5 25.5C11 18.5 11 16.5 23 7L228.5 5L230.5 58L200 62L196.5 111L66.5 114.5C58.5 113.5 41.8 111.4 39 111C35.5 110.5 39 107.5 39 104V69C39 67 30.5 65 27 64C23.5 63 8 56.5 7.5 50.5C7 44.5 10 32.5 10.5 25.5Z" fill="#EA1B0E"/>
</g>
</svg>
