<svg viewBox="0 0 2286 1777" fill="none" xmlns="http://www.w3.org/2000/svg" class="svg svg-1" data-v-8390fb7c=""><g id="Group 316124770" data-v-8390fb7c=""><g id="Group 316124737" data-v-8390fb7c=""><g id="Group 316124612" data-v-8390fb7c=""><g id="Group 316124611" data-v-8390fb7c=""><path id="[Copy] We believe food has the power to unite" d="M851.823 905.685L853.693 904.453L859.829 912.137L860.067 912.44L860.08 912.431L859.895 912.093L855.443 903.3L857.715 901.803L864.024 909.373L864.275 909.667L864.289 909.658L864.104 909.32L859.452 900.659L861.322 899.427L866.988 911.022L864.45 912.694L858.565 905.478L858.296 905.157L858.484 905.531L862.793 913.786L860.241 915.467L851.823 905.685Z" fill="#BF4C6B" data-v-8390fb7c=""></path><path id="[Copy] We believe food has the power to unite_2" d="M862.574 898.724L866.801 896.19L867.763 897.795L865.471 899.169L867.322 902.257L869.491 900.957L870.445 902.549L868.277 903.849L870.128 906.936L872.42 905.563L873.382 907.168L869.155 909.702L862.574 898.724Z" fill="#BF4C6B" data-v-8390fb7c=""></path><path id="[Copy] We believe food has the power to unite_3" d="M877.726 904.694L880.395 903.271C882.526 902.134 882.633 900.735 881.504 898.618L881.323 898.279C880.57 896.867 879.629 896.462 878.551 896.584C879.197 895.822 879.424 894.922 878.761 893.679L878.573 893.326C877.677 891.646 876.377 890.907 874.315 892.006L871.703 893.399L877.726 904.694ZM878.836 901.98L877.037 898.606L877.46 898.38C878.223 897.974 878.657 898.141 879.093 898.96L879.703 900.104C880.177 900.993 880.107 901.303 879.26 901.754L878.836 901.98ZM876.156 896.954L874.575 893.989L874.984 893.771C875.676 893.402 876.013 893.422 876.457 894.255L876.969 895.215C877.406 896.034 877.172 896.412 876.551 896.743L876.156 896.954Z" fill="#BF4C6B" data-v-8390fb7c=""></path><path id="[Copy] We believe food has the power to unite_4" d="M884.631 901.07L889.057 898.904L888.234 897.222L885.834 898.397L884.251 895.164L886.522 894.052L885.706 892.385L883.435 893.497L881.852 890.263L884.252 889.089L883.429 887.407L879.003 889.574L884.631 901.07Z" fill="#BF4C6B" data-v-8390fb7c=""></path><path id="[Copy] We believe food has the power to unite_5" d="M890.362 898.294L894.896 896.244L894.125 894.538L891.647 895.659L887.145 885.701L885.089 886.63L890.362 898.294Z" fill="#BF4C6B" data-v-8390fb7c=""></path><path id="[Copy] We believe food has the power to unite_6" d="M895.813 895.86L897.89 894.978L892.886 883.196L890.81 884.078L895.813 895.86Z" fill="#BF4C6B" data-v-8390fb7c=""></path><path id="[Copy] We believe food has the power to unite_7" d="M899.092 894.471L903.67 892.649L902.978 890.91L900.496 891.898L899.165 888.553L901.514 887.618L900.828 885.893L898.479 886.828L897.148 883.483L899.63 882.495L898.938 880.756L894.36 882.578L899.092 894.471Z" fill="#BF4C6B" data-v-8390fb7c=""></path><path id="[Copy] We believe food has the power to unite_8" d="M906.301 891.68L909.252 890.621L906.527 878L904.373 878.773L907.011 888.875L907.105 889.232L906.936 888.902L902.551 879.426L900.382 880.204L906.301 891.68Z" fill="#BF4C6B" data-v-8390fb7c=""></path><path id="[Copy] We believe food has the power to unite_9" d="M911.517 889.839L916.204 888.317L915.625 886.536L913.084 887.361L911.972 883.938L914.376 883.157L913.803 881.391L911.399 882.172L910.287 878.748L912.828 877.923L912.25 876.143L907.563 877.665L911.517 889.839Z" fill="#BF4C6B" data-v-8390fb7c=""></path><path id="[Copy] We believe food has the power to unite_10" d="M921.193 886.839L923.371 886.248L922.105 881.585L924.638 880.897L924.152 879.106L921.619 879.793L920.509 875.701L923.088 875.002L922.598 873.195L917.842 874.485L921.193 886.839Z" fill="#BF4C6B" data-v-8390fb7c=""></path><path id="[Copy] We believe food has the power to unite_11" d="M935.728 890.572C937.769 890.092 938.483 888.658 937.915 886.244L936.61 880.699C936.042 878.285 934.763 877.32 932.723 877.801C930.683 878.281 929.968 879.714 930.536 882.129L931.841 887.673C932.409 890.087 933.688 891.052 935.728 890.572ZM934.256 887.877L932.61 880.884C932.412 880.043 932.611 879.701 933.141 879.576C933.67 879.451 934.005 879.685 934.203 880.526L935.845 887.503C936.039 888.329 935.84 888.672 935.31 888.796C934.781 888.921 934.45 888.703 934.256 887.877Z" fill="#BF4C6B" data-v-8390fb7c=""></path><path id="[Copy] We believe food has the power to unite_12" d="M943.153 889.125C945.21 888.721 945.978 887.315 945.5 884.882L944.404 879.292C943.926 876.858 942.684 875.847 940.628 876.25C938.571 876.654 937.803 878.06 938.28 880.493L939.377 886.083C939.854 888.516 941.096 889.528 943.153 889.125ZM941.783 886.377L940.4 879.328C940.233 878.48 940.445 878.145 940.979 878.04C941.512 877.935 941.838 878.181 942.004 879.029L943.384 886.063C943.547 886.895 943.336 887.23 942.802 887.335C942.268 887.44 941.946 887.209 941.783 886.377Z" fill="#BF4C6B" data-v-8390fb7c=""></path><path id="[Copy] We believe food has the power to unite_13" d="M947.592 888.282L950.279 887.859C952.823 887.457 953.584 886.527 953.172 883.92L952.25 878.072C951.834 875.433 950.829 874.813 948.284 875.215L945.598 875.639L947.592 888.282ZM949.556 886.256L948.09 876.962L948.549 876.89C949.418 876.753 949.735 876.914 949.902 877.973L950.969 884.737C951.133 885.78 950.9 886.044 950.046 886.178L949.556 886.256Z" fill="#BF4C6B" data-v-8390fb7c=""></path><path id="[Copy] We believe food has the power to unite_14" d="M958.432 879.91L960.677 879.691L959.436 866.951L957.19 867.17L957.721 872.616L956.113 872.773L955.582 867.327L953.337 867.546L954.578 880.286L956.824 880.067L956.293 874.621L957.901 874.464L958.432 879.91Z" fill="#BF4C6B" data-v-8390fb7c=""></path><path id="[Copy] We believe food has the power to unite_15" d="M961.912 879.592L964.212 879.454L964.27 877.238L965.82 877.145L966.144 879.337L968.428 879.199L965.964 866.525L962.834 866.714L961.912 879.592ZM964.333 875.359L964.511 869.017L964.521 868.647L964.591 869.012L965.531 875.287L964.333 875.359Z" fill="#BF4C6B" data-v-8390fb7c=""></path><path id="[Copy] We believe food has the power to unite_16" d="M972.12 879.251C974.247 879.193 975.206 877.966 975.144 875.663C975.09 873.68 974.317 872.916 973.221 872.082L971.898 871.078C971.375 870.692 971.077 870.316 971.053 869.468L971.04 868.988C971.019 868.22 971.252 867.958 971.796 867.943C972.308 867.929 972.602 868.145 972.627 869.073L972.66 870.289L974.948 870.226L974.921 869.267C974.864 867.171 973.73 866.082 971.779 866.135C969.684 866.192 968.71 867.467 968.765 869.482C968.809 871.114 969.506 872.007 970.618 872.857L971.958 873.877C972.513 874.278 972.812 874.67 972.837 875.598L972.857 876.317C972.879 877.133 972.663 877.427 972.087 877.443C971.511 877.458 971.248 877.194 971.224 876.314L971.179 874.682L968.876 874.745L968.9 875.625C968.967 878.088 970.009 879.308 972.12 879.251Z" fill="#BF4C6B" data-v-8390fb7c=""></path><path id="[Copy] We believe food has the power to unite_17" d="M981.852 879.057L984.107 879.111L984.37 868.186L986.193 868.23L986.238 866.359L980.32 866.216L980.275 868.088L982.115 868.132L981.852 879.057Z" fill="#BF4C6B" data-v-8390fb7c=""></path><path id="[Copy] We believe food has the power to unite_18" d="M991.306 879.452L993.558 879.588L994.332 866.811L992.08 866.675L991.749 872.137L990.136 872.039L990.467 866.577L988.215 866.441L987.441 879.217L989.693 879.354L990.024 873.892L991.637 873.99L991.306 879.452Z" fill="#BF4C6B" data-v-8390fb7c=""></path><path id="[Copy] We believe food has the power to unite_19" d="M997.398 886.977L1002.3 887.437L1002.48 885.573L999.819 885.324L1000.15 881.739L1002.67 881.975L1002.84 880.127L1000.33 879.891L1000.66 876.307L1003.32 876.556L1003.5 874.692L998.591 874.233L997.398 886.977Z" fill="#BF4C6B" data-v-8390fb7c=""></path><path id="[Copy] We believe food has the power to unite_20" d="M1004.97 880.778L1007.2 881.102L1007.82 876.843L1008.2 876.898C1010.84 877.282 1011.9 876.352 1012.32 873.439L1012.4 872.948C1012.83 869.987 1012.07 868.874 1009.42 868.49L1006.81 868.111L1004.97 880.778ZM1008.06 875.165L1008.8 870.114L1009.49 870.215C1010.21 870.318 1010.39 870.749 1010.25 871.683L1009.91 874.042C1009.77 874.976 1009.47 875.369 1008.76 875.266L1008.06 875.165Z" fill="#BF4C6B" data-v-8390fb7c=""></path><path id="[Copy] We believe food has the power to unite_21" d="M1015.05 882.54C1017.12 882.909 1018.34 881.877 1018.78 879.435L1019.78 873.828C1020.22 871.387 1019.42 869.994 1017.36 869.625C1015.3 869.256 1014.07 870.289 1013.64 872.73L1012.63 878.337C1012.2 880.778 1012.99 882.171 1015.05 882.54ZM1014.77 879.483L1016.03 872.411C1016.19 871.56 1016.51 871.325 1017.04 871.42C1017.58 871.516 1017.79 871.863 1017.64 872.714L1016.38 879.77C1016.23 880.605 1015.91 880.84 1015.37 880.745C1014.84 880.649 1014.62 880.317 1014.77 879.483Z" fill="#BF4C6B" data-v-8390fb7c=""></path><path id="[Copy] We believe food has the power to unite_22" d="M1021.11 883.527L1024.09 884.217L1027.1 875.406L1027.24 875.011L1027.19 875.427L1026.02 884.665L1028.98 885.352L1033.48 873.255L1031.29 872.749L1028.22 882.089L1028.11 882.456L1028.09 882.452L1028.13 882.067L1029.27 872.279L1026.62 871.665L1023.31 880.951L1023.2 881.318L1023.18 881.314L1023.24 880.933L1024.58 871.191L1022.39 870.685L1021.11 883.527Z" fill="#BF4C6B" data-v-8390fb7c=""></path><path id="[Copy] We believe food has the power to unite_23" d="M1031.32 885.992L1036.07 887.296L1036.57 885.491L1033.99 884.784L1034.95 881.312L1037.38 881.981L1037.87 880.191L1035.44 879.522L1036.39 876.05L1038.97 876.757L1039.46 874.952L1034.71 873.648L1031.32 885.992Z" fill="#BF4C6B" data-v-8390fb7c=""></path><path id="[Copy] We believe food has the power to unite_24" d="M1041.27 888.89L1043.47 889.572C1043.41 889.25 1043.51 888.878 1043.64 888.435L1044.37 886.081C1044.7 885.027 1044.63 884.016 1043.57 883.219C1044.85 883.131 1045.47 882.551 1046.06 880.625L1046.13 880.427C1046.88 877.982 1046.26 877.033 1043.93 876.313L1041.2 875.465L1037.41 887.691L1039.56 888.359L1041.09 883.423L1041.69 883.608C1042.16 883.755 1042.56 884.146 1042.28 885.048L1041.44 887.753C1041.3 888.211 1041.18 888.659 1041.27 888.89ZM1041.59 881.803L1042.85 877.753L1043.45 877.938C1044.18 878.165 1044.31 878.491 1044.04 879.378L1043.51 881.09C1043.3 881.747 1043 882.239 1042.19 881.988L1041.59 881.803Z" fill="#BF4C6B" data-v-8390fb7c=""></path><path id="[Copy] We believe food has the power to unite_25" d="M1050.1 891.926L1052.21 892.711L1056.02 882.466L1057.73 883.1L1058.38 881.345L1052.83 879.286L1052.18 881.041L1053.9 881.681L1050.1 891.926Z" fill="#BF4C6B" data-v-8390fb7c=""></path><path id="[Copy] We believe food has the power to unite_26" d="M1058.07 895.225C1060 896.025 1061.42 895.278 1062.37 892.986L1064.54 887.722C1065.49 885.43 1065.01 883.9 1063.08 883.1C1061.14 882.299 1059.72 883.047 1058.78 885.339L1056.6 890.603C1055.65 892.895 1056.13 894.424 1058.07 895.225ZM1058.44 892.178L1061.19 885.538C1061.52 884.74 1061.88 884.578 1062.38 884.785C1062.88 884.993 1063.02 885.378 1062.69 886.176L1059.95 892.801C1059.63 893.585 1059.26 893.747 1058.76 893.539C1058.26 893.331 1058.12 892.961 1058.44 892.178Z" fill="#BF4C6B" data-v-8390fb7c=""></path><path id="[Copy] We believe food has the power to unite_27" d="M1069.01 900.147C1070.9 901.06 1072.3 900.477 1073.38 898.244L1077.45 889.833L1075.39 888.837L1071.04 897.838C1070.67 898.602 1070.29 898.757 1069.8 898.52C1069.3 898.276 1069.2 897.891 1069.57 897.127L1073.92 888.126L1071.85 887.122L1067.78 895.533C1066.7 897.766 1067.13 899.234 1069.01 900.147Z" fill="#BF4C6B" data-v-8390fb7c=""></path><path id="[Copy] We believe food has the power to unite_28" d="M1073.41 902.145L1075.19 903.09L1078.65 896.573L1077.13 904.117L1078.91 905.061L1084.91 893.753L1083.13 892.809L1079.68 899.311L1081.19 891.782L1079.41 890.837L1073.41 902.145Z" fill="#BF4C6B" data-v-8390fb7c=""></path><path id="[Copy] We believe food has the power to unite_29" d="M1080.43 905.946L1082.39 907.062L1088.72 895.936L1086.76 894.821L1080.43 905.946Z" fill="#BF4C6B" data-v-8390fb7c=""></path><path id="[Copy] We believe food has the power to unite_30" d="M1085.18 908.703L1087.11 909.869L1092.76 900.514L1094.32 901.457L1095.29 899.854L1090.22 896.794L1089.25 898.397L1090.83 899.348L1085.18 908.703Z" fill="#BF4C6B" data-v-8390fb7c=""></path><path id="[Copy] We believe food has the power to unite_31" d="M1089.62 911.431L1093.76 914.103L1094.77 912.53L1092.53 911.082L1094.48 908.057L1096.6 909.427L1097.61 907.868L1095.49 906.497L1097.44 903.472L1099.68 904.921L1100.7 903.348L1096.56 900.676L1089.62 911.431Z" fill="#BF4C6B" data-v-8390fb7c=""></path></g><g id="pink-bubble" data-v-8390fb7c="" style="transform-origin: 0px 0px; translate: none; rotate: none; scale: none; opacity: 1;" data-svg-origin="753.5 899.9130249023438" transform="matrix(1,0,0,1,0,0)"><ellipse id="Ellipse 610_2" cx="753.5" cy="899.913" rx="91.5" ry="93.9132" fill="#FDEEF2" data-v-8390fb7c=""></ellipse><circle id="Ellipse 624_2" cx="753.498" cy="899.916" r="87.0758" fill="#FDDDE5" data-v-8390fb7c=""></circle><circle id="Ellipse 625_2" cx="753.499" cy="899.917" r="80.6407" fill="#F4B9C8" data-v-8390fb7c=""></circle></g><g id="pink-bubble" data-v-8390fb7c="" style="transform-origin: 0px 0px; translate: none; rotate: none; scale: none; opacity: 1;" data-svg-origin="863.5 806.0689697265625" transform="matrix(1,0,0,1,0,0)"><ellipse id="Ellipse 610_3" cx="863.5" cy="806.069" rx="59.5" ry="61.0692" fill="#FDEEF2" data-v-8390fb7c=""></ellipse><circle id="Ellipse 624_3" cx="863.499" cy="806.071" r="56.6231" fill="#FDDDE5" data-v-8390fb7c=""></circle><circle id="Ellipse 625_3" cx="863.5" cy="806.071" r="52.4385" fill="#F4B9C8" data-v-8390fb7c=""></circle></g><g id="black-bubble" data-v-8390fb7c="" style="transform-origin: 0px 0px; translate: none; rotate: none; scale: none; opacity: 1;" data-svg-origin="832 756" transform="matrix(1,0,0,1,0,0)"><circle id="Ellipse 217_2" cx="832" cy="756" r="9" fill="#473D36" data-v-8390fb7c=""></circle><path id="Vector 577_2" d="M831.631 753.057C835.453 753.057 835.453 750.937 835.453 748.969C835.453 750.937 835.453 753.057 839.275 753.057C835.453 753.057 835.453 755.782 835.453 757.599C835.453 755.782 835.453 753.057 831.631 753.057Z" fill="#F3EFE6" data-v-8390fb7c=""></path></g><g id="black-bubble" data-v-8390fb7c="" style="transform-origin: 0px 0px; translate: none; rotate: none; scale: none; opacity: 1;" data-svg-origin="913 845" transform="matrix(1,0,0,1,0,0)"><circle id="Ellipse 215" cx="913" cy="845" r="21" fill="#E27391" data-v-8390fb7c=""></circle><path id="Vector 575" d="M915.737 839.34C921.945 839.34 921.945 835.931 921.945 832.766C921.945 835.931 921.945 839.34 928.154 839.34C921.945 839.34 921.945 843.722 921.945 846.644C921.945 843.722 921.945 839.34 915.737 839.34Z" fill="#F3EFE6" data-v-8390fb7c=""></path></g></g><g id="pink-bubble" data-v-8390fb7c="" style="transform-origin: 0px 0px; translate: none; rotate: none; scale: none; opacity: 1;" data-svg-origin="229.5 1386.5" transform="matrix(1,0,0,1,0,0)"><circle id="Ellipse 611" cx="229.5" cy="1386.5" r="92.5" fill="#FDDDE5" data-v-8390fb7c=""></circle><circle id="Ellipse 626" cx="229.5" cy="1386.5" r="77.5" fill="#F4B9C8" data-v-8390fb7c=""></circle></g><g id="pink-bubble" data-v-8390fb7c="" style="transform-origin: 0px 0px; translate: none; rotate: none; scale: none; opacity: 1;" data-svg-origin="535.5 695.614013671875" transform="matrix(1,0,0,1,0,0)"><ellipse id="Ellipse 617" cx="535.5" cy="695.614" rx="515.5" ry="517.614" fill="#FDEEF2" data-v-8390fb7c=""></ellipse><ellipse id="Ellipse 614" cx="536.028" cy="696.149" rx="502.268" ry="504.386" fill="#FDDDE5" data-v-8390fb7c=""></ellipse><ellipse id="Ellipse 613" cx="535.502" cy="695.615" rx="482.686" ry="484.803" fill="#F4B9C8" data-v-8390fb7c=""></ellipse></g><g id="pink-bubble" data-v-8390fb7c="" style="transform-origin: 0px 0px; translate: none; rotate: none; scale: none; opacity: 1;" data-svg-origin="1925.5 364.5" transform="matrix(1,0,0,1,0,0)"><ellipse id="Ellipse 619" cx="1925.5" cy="364.5" rx="360.5" ry="364.5" fill="#FDDDE5" data-v-8390fb7c=""></ellipse><ellipse id="Ellipse 674" cx="1925.5" cy="364.5" rx="337.5" ry="341.5" fill="#F4B9C8" data-v-8390fb7c=""></ellipse></g><ellipse id="Ellipse 610_4" cx="843.5" cy="1401.5" rx="227.5" ry="233.5" fill="#FDEEF2" data-v-8390fb7c=""></ellipse><g id="pink-bubble" data-v-8390fb7c="" style="transform-origin: 0px 0px; translate: none; rotate: none; scale: none; opacity: 1;" data-svg-origin="1357 1182" transform="matrix(1,0,0,1,0,0)"><circle id="Ellipse 649" cx="1357" cy="1182" r="367" fill="#FDEEF2" data-v-8390fb7c=""></circle><circle id="Ellipse 206" cx="1357" cy="1182" r="346" fill="#FDDDE5" data-v-8390fb7c=""></circle><circle id="Ellipse 620" cx="1357" cy="1182" r="325" fill="#F4B9C8" data-v-8390fb7c=""></circle></g><g id="pink-bubble" data-v-8390fb7c="" style="transform-origin: 0px 0px; translate: none; rotate: none; scale: none; opacity: 1;" data-svg-origin="1109.77001953125 427.5" transform="matrix(1,0,0,1,0,0)"><ellipse id="Ellipse 644" cx="1109.77" cy="427.5" rx="119.77" ry="120.5" fill="#FDEEF2" data-v-8390fb7c=""></ellipse><ellipse id="Ellipse 649_2" cx="1109.77" cy="427.5" rx="113.23" ry="113.921" fill="#FDDDE5" data-v-8390fb7c=""></ellipse><ellipse id="Ellipse 648" cx="1110.5" cy="427.5" rx="104.433" ry="105.164" fill="#F4B9C8" data-v-8390fb7c=""></ellipse></g><g id="pink-bubble" data-v-8390fb7c="" style="transform-origin: 0px 0px; translate: none; rotate: none; scale: none; opacity: 1;" data-svg-origin="1741 1432" transform="matrix(1,0,0,1,0,0)"><circle id="Ellipse 218" cx="1741" cy="1432" r="98" fill="#FDEEF2" data-v-8390fb7c=""></circle><circle id="Ellipse 622" cx="1741" cy="1432" r="88" fill="#FDDDE5" data-v-8390fb7c=""></circle><circle id="Ellipse 623" cx="1741" cy="1432" r="75" fill="#F4B9C8" data-v-8390fb7c=""></circle></g><g id="pink-bubble" data-v-8390fb7c="" style="transform-origin: 0px 0px; translate: none; rotate: none; scale: none; opacity: 1;" data-svg-origin="1733.5 782.5" transform="matrix(1,0,0,1,0,0)"><circle id="Ellipse 646" cx="1733.5" cy="782.5" r="109.5" fill="#FDDDE5" data-v-8390fb7c=""></circle><ellipse id="Ellipse 647" cx="1733.5" cy="781.911" rx="91.8387" ry="92.4274" fill="#F4B9C8" data-v-8390fb7c=""></ellipse></g><g id="pink-bubble" data-v-8390fb7c="" style="transform-origin: 0px 0px; translate: none; rotate: none; scale: none; opacity: 1;" data-svg-origin="1014.5 1667.5" transform="matrix(1,0,0,1,0,0)"><circle id="Ellipse 637" cx="1014.5" cy="1667.5" r="109.5" fill="#FDEEF2" data-v-8390fb7c=""></circle><circle id="Ellipse 635" cx="1014" cy="1667" r="102" fill="#FDDDE5" data-v-8390fb7c=""></circle><ellipse id="Ellipse 636" cx="1014.5" cy="1667" rx="84.5" ry="85" fill="#F4B9C8" data-v-8390fb7c=""></ellipse></g><g id="pink-bubble" data-v-8390fb7c="" style="transform-origin: 0px 0px; translate: none; rotate: none; scale: none; opacity: 1;" data-svg-origin="499 1331" transform="matrix(1,0,0,1,0,0)"><circle id="pink-bubble" cx="499" cy="1331" r="139" fill="#FDDDE5" data-v-8390fb7c="" style="transform-origin: 0px 0px; translate: none; rotate: none; scale: none; opacity: 1;" data-svg-origin="499 1331" transform="matrix(1,0,0,1,0,0)"></circle></g><g id="pink-bubble" data-v-8390fb7c="" style="transform-origin: 0px 0px; translate: none; rotate: none; scale: none; opacity: 1;" data-svg-origin="843.5 1401.5" transform="matrix(1,0,0,1,0,0)"><circle id="groiup" cx="843.5" cy="1401.5" r="216.5" fill="#FDDDE5" data-v-8390fb7c=""></circle><circle id="griup" cx="843.5" cy="1401.5" r="200.5" fill="#F4B9C8" data-v-8390fb7c=""></circle></g><circle id="pink-bubble" cx="968.5" cy="1038.5" r="234.5" fill="#F4B9C8" data-v-8390fb7c="" style="transform-origin: 0px 0px; translate: none; rotate: none; scale: none; opacity: 1;" data-svg-origin="968.5 1038.5" transform="matrix(1,0,0,1,0,0)"></circle><ellipse id="pink-bubble" cx="499" cy="1331.5" rx="127" ry="127.5" fill="#F4B9C8" data-v-8390fb7c="" style="transform-origin: 0px 0px; translate: none; rotate: none; scale: none; opacity: 1;" data-svg-origin="499 1331.5" transform="matrix(1,0,0,1,0,0)"></ellipse><g id="pink-bubble" data-v-8390fb7c="" style="transform-origin: 0px 0px; translate: none; rotate: none; scale: none; opacity: 1;" data-svg-origin="351 1418" transform="matrix(1,0,0,1,0,0)"><circle id="group12344" cx="351" cy="1418" r="40" fill="#FDDDE5" data-v-8390fb7c=""></circle><circle id="group2134123" cx="351" cy="1418" r="29" fill="#F4B9C8" data-v-8390fb7c=""></circle></g><g id="pink-bubble" data-v-8390fb7c="" style="transform-origin: 0px 0px; translate: none; rotate: none; scale: none; opacity: 1;" data-svg-origin="76 1026" transform="matrix(1,0,0,1,0,0)"><circle id="pink-bubble" cx="76" cy="1026" r="76" fill="#FDDDE5" data-v-8390fb7c="" style="transform-origin: 0px 0px; translate: none; rotate: none; scale: none; opacity: 1;" data-svg-origin="76 1026" transform="matrix(1,0,0,1,0,0)"></circle><circle id="Ellipse 224" cx="76" cy="1026" r="59" fill="#F4B9C8" data-v-8390fb7c=""></circle></g><g id="black-bubble" data-v-8390fb7c="" style="transform-origin: 0px 0px; translate: none; rotate: none; scale: none; opacity: 1;" data-svg-origin="1800.5 931.5" transform="matrix(1,0,0,1,0,0)"><circle id="Ellipse 215_2" cx="1800.5" cy="931.5" r="57.5" fill="#473D36" data-v-8390fb7c=""></circle><path id="Vector 575_2" d="M1808 916C1825 916 1825 906.667 1825 898C1825 906.667 1825 916 1842 916C1825 916 1825 928 1825 936C1825 928 1825 916 1808 916Z" fill="#F3EFE6" data-v-8390fb7c=""></path></g><g id="black-bubble" data-v-8390fb7c="" style="transform-origin: 0px 0px; translate: none; rotate: none; scale: none; opacity: 1;" data-svg-origin="1567.5 1493.5" transform="matrix(1,0,0,1,0,0)"><circle id="Ellipse 217_3" cx="1567.5" cy="1493.5" r="36.5" fill="#473D36" data-v-8390fb7c=""></circle><path id="Vector 577_3" d="M1566 1481.58C1581.5 1481.58 1581.5 1472.98 1581.5 1465C1581.5 1472.98 1581.5 1481.58 1597 1481.58C1581.5 1481.58 1581.5 1492.63 1581.5 1500C1581.5 1492.63 1581.5 1481.58 1566 1481.58Z" fill="#F3EFE6" data-v-8390fb7c=""></path></g><g id="black-bubble" data-v-8390fb7c="" style="transform-origin: 0px 0px; translate: none; rotate: none; scale: none; opacity: 1;" data-svg-origin="368 1249" transform="matrix(1,0,0,1,0,0)"><g id="Group 316123870" data-v-8390fb7c=""><circle id="Ellipse 219" cx="368" cy="1249" r="45" fill="#473D36" data-v-8390fb7c=""></circle></g><path id="Vector 578" d="M360 1232.58C375.5 1232.58 375.5 1223.98 375.5 1216C375.5 1223.98 375.5 1232.58 391 1232.58C375.5 1232.58 375.5 1243.63 375.5 1251C375.5 1243.63 375.5 1232.58 360 1232.58Z" fill="#F3EFE6" data-v-8390fb7c=""></path></g><g id="black-bubble" data-v-8390fb7c="" style="transform-origin: 0px 0px; translate: none; rotate: none; scale: none; opacity: 1;" data-svg-origin="228.5 1045.5" transform="matrix(1,0,0,1,0,0)"><circle id="Ellipse 222" cx="228.5" cy="1045.5" r="31.5" fill="#473D36" data-v-8390fb7c=""></circle><path id="Vector 579" d="M229 1036.32C240.5 1036.32 240.5 1029.93 240.5 1024C240.5 1029.93 240.5 1036.32 252 1036.32C240.5 1036.32 240.5 1044.53 240.5 1050C240.5 1044.53 240.5 1036.32 229 1036.32Z" fill="#F3EFE6" data-v-8390fb7c=""></path></g><g id="black-bubble" data-v-8390fb7c="" style="transform-origin: 0px 0px; translate: none; rotate: none; scale: none; opacity: 1;" data-svg-origin="578 399.61700439453125" transform="matrix(1,0,0,1,0,0)"><circle id="Ellipse 595" cx="578" cy="399.617" r="56" fill="#473D36" data-v-8390fb7c=""></circle><path id="Vector 566" d="M581 380.67C605.5 380.67 605.5 367.161 605.5 354.617C605.5 367.161 605.5 380.67 630 380.67C605.5 380.67 605.5 398.038 605.5 409.617C605.5 398.038 605.5 380.67 581 380.67Z" fill="#F3EFE6" data-v-8390fb7c=""></path></g><g id="black-bubble" data-v-8390fb7c="" style="transform-origin: 0px 0px; translate: none; rotate: none; scale: none; opacity: 1;" data-svg-origin="814.5 256.11700439453125" transform="matrix(1,0,0,1,0,0)"><circle id="Ellipse 216" cx="814.5" cy="256.117" r="16.5" fill="#473D36" data-v-8390fb7c=""></circle><path id="Vector 576" d="M812.826 251.372C820.239 251.372 820.239 247.261 820.239 243.443C820.239 247.261 820.239 251.372 827.652 251.372C820.239 251.372 820.239 256.658 820.239 260.182C820.239 256.658 820.239 251.372 812.826 251.372Z" fill="#F3EFE6" data-v-8390fb7c=""></path></g><g id="Group 316123963" data-v-8390fb7c=""><g id="pink-bubble" data-v-8390fb7c="" style="transform-origin: 0px 0px; translate: none; rotate: none; scale: none; opacity: 1;" data-svg-origin="1382.5 515" transform="matrix(1,0,0,1,0,0)"><circle id="Ellipse 648_2" cx="1382.5" cy="515" r="168.5" fill="#FDEEF2" data-v-8390fb7c=""></circle><circle id="Ellipse 646_2" cx="1382.5" cy="515" r="161.219" fill="#FDDDE5" data-v-8390fb7c=""></circle><ellipse id="Ellipse 647_2" cx="1383.02" cy="514.48" rx="148.218" ry="149.258" fill="#F4B9C8" data-v-8390fb7c=""></ellipse></g><g id="black-bubble" transform="matrix(1,0,0,1,16,45.5)" data-v-8390fb7c="" style="transform-origin: 0px 0px; translate: none; rotate: none; scale: none; opacity: 1;" data-svg-origin="1535.5 390.5"><circle id="Ellipse 595_2" cx="1535.5" cy="390.5" r="37.5" fill="#473D36" data-v-8390fb7c=""></circle><path id="Vector 566_2" d="M1537.51 377.812C1553.92 377.812 1553.92 368.766 1553.92 360.366C1553.92 368.766 1553.92 377.812 1570.32 377.812C1553.92 377.812 1553.92 389.443 1553.92 397.196C1553.92 389.443 1553.92 377.812 1537.51 377.812Z" fill="#F3EFE6" data-v-8390fb7c=""></path></g></g></g></g></svg>