<svg viewBox="0 0 291 305" fill="none" xmlns="http://www.w3.org/2000/svg">
<defs data-v-4c4f7eb1=""><filter id="blur-filter" x="0" y="0" data-v-4c4f7eb1=""><feGaussianBlur in="SourceGraphic" stdDeviation="20" data-v-4c4f7eb1=""></feGaussianBlur></filter> <clipPath id="ball-mask" data-v-4c4f7eb1=""><path id="Vector" d="M47.38 118.122C45.8855 118.122 44.1774 117.701 42.8964 117.069C38.4127 114.541 36.7046 108.852 39.0532 104.428C53.7853 77.6719 79.1929 57.4469 108.871 49.0198C113.781 47.5451 119.119 50.4945 120.614 55.3401C122.108 60.1857 119.119 65.4527 114.208 66.9274C89.4413 74.0904 68.0904 90.9446 55.7069 113.487C53.9988 116.226 50.7962 118.122 47.38 118.122Z" fill="#FFF193" data-v-4c4f7eb1=""></path> <path id="Vector_2" d="M37 141.945C31.4681 141.945 27 137.51 27 132.019C27 126.528 31.4681 122.093 37 122.093C42.5319 122.093 47 126.528 47 132.019C47 137.51 42.5319 141.945 37 141.945Z" fill="#FFF193" data-v-4c4f7eb1=""></path> <path id="Vector_3" d="M8.37169 119.372C7.55171 121.25 7.00505 123.128 6.4584 125.006V125.274V125.542C5.91174 127.42 5.36509 129.298 4.81843 131.175C4.81843 131.444 4.81843 131.444 4.81843 131.712C4.27178 133.858 3.72513 135.736 3.4518 137.614C3.4518 137.882 3.4518 137.882 3.4518 138.15C2.63182 139.491 2.08516 141.369 1.81184 143.783V144.052C1.53851 145.929 1.26518 147.807 0.991856 150.221C0.718529 152.367 0.445202 154.513 0.445202 156.659V157.464C0.445202 158.805 0.171875 159.878 0.171875 161.22C0.171875 162.829 0.171875 164.439 0.171875 165.78C0.171875 202.799 14.9315 237.672 41.7176 263.96C68.5036 290.249 104.036 304.735 141.755 304.735C179.474 304.735 215.007 290.249 241.793 263.96C268.579 237.672 283.339 202.799 283.339 165.78C283.339 141.369 276.779 117.495 264.479 96.5709C262.839 93.6201 260.926 90.6693 259.013 87.9868C256.826 85.036 254.639 82.0853 252.453 79.1345C255.733 77.525 259.013 75.9155 262.566 75.1107C269.399 73.5012 290.172 71.3552 290.172 71.3552C290.172 71.3552 269.126 69.7457 262.293 68.1361C257.646 66.7949 252.999 64.6489 248.9 62.2346C244.526 59.2838 240.426 55.7965 237.146 51.5045C233.593 46.4077 230.86 41.0426 229.493 35.1411C227.58 26.557 225.667 0 225.667 0C225.667 0 223.753 26.557 221.84 35.1411C220.747 39.9696 218.834 44.2617 216.1 48.5537C193.961 34.8728 167.995 27.3618 141.482 27.3618H139.842C139.295 27.3618 138.749 27.3618 138.475 27.3618H137.655C137.109 27.3618 136.562 27.3618 136.015 27.3618C135.742 27.3618 135.469 27.3618 134.922 27.3618C89.2765 29.5078 47.4575 53.3823 22.5847 90.9376V91.2059C21.4914 92.8154 20.6714 94.4249 19.5781 96.0344C19.5781 96.0344 19.5781 96.3027 19.3048 96.3027C18.2115 97.9122 17.3915 99.5217 16.2982 101.399L16.0248 101.668C15.2049 103.277 14.3849 105.155 13.2916 107.033C13.2916 107.033 13.2916 107.301 13.0182 107.301C12.1983 109.179 11.3783 110.788 10.5583 112.666C10.5583 112.934 10.285 112.934 10.285 113.203C9.465 115.08 8.91834 116.69 8.09836 118.568L8.37169 119.372ZM132.462 279.519C99.9363 279.519 69.3236 267.179 46.0908 245.183C22.5847 222.918 9.19167 193.41 8.09836 161.756C8.09836 160.683 8.09836 159.342 8.37169 158.269V157.464C8.64501 155.318 8.64501 153.44 8.91834 151.294C9.19167 149.148 9.465 147.271 9.73832 145.393C9.73832 145.125 9.73832 145.125 9.73832 144.856C10.0116 142.71 10.5583 140.833 10.8316 139.223C10.8316 139.223 10.8316 139.223 10.8316 138.955C11.105 137.345 11.6516 135.468 12.1983 133.322V133.053C12.7449 131.175 13.2916 129.298 13.8382 127.688V127.42V127.152C14.3849 125.542 14.9315 123.664 15.7515 121.787L16.0248 121.518C16.8448 119.641 17.3915 118.031 18.2115 116.153V115.885C19.0314 114.544 19.8514 112.666 20.6714 111.057C20.6714 111.057 20.6714 111.057 20.6714 110.788C20.6714 110.788 20.6714 110.788 20.6714 110.52C21.4914 108.642 22.3114 107.033 23.1313 105.423C23.1313 105.423 23.1313 105.155 23.4047 105.155C24.498 103.277 25.318 101.668 26.1379 100.326C26.1379 100.326 26.1379 100.326 26.1379 100.058C27.2313 98.4487 28.0512 96.8392 29.1445 95.2296C29.1445 95.2296 29.1445 94.9614 29.4179 94.9614C52.924 59.5521 92.2831 37.2871 135.195 35.4093C135.469 35.4093 136.015 35.4093 136.289 35.4093C136.562 35.4093 137.109 35.4093 137.382 35.4093H137.929C163.895 35.9458 187.674 44.5299 206.807 58.7473C205.167 60.0886 203.801 61.1616 202.161 62.2346C198.061 64.9171 193.414 66.7949 188.768 68.1361C181.934 69.7457 161.162 71.8917 161.162 71.8917C161.162 71.8917 181.934 74.0377 188.768 75.6472C193.414 76.9885 198.061 79.1345 202.161 81.5488C206.534 84.4995 210.634 87.9868 213.914 92.2789C217.467 97.3757 220.2 102.741 221.567 108.642C223.48 117.226 225.393 143.783 225.393 143.783C225.393 143.783 227.307 117.226 229.22 108.642C230.86 102.741 233.32 97.1074 236.873 92.2789C237.146 92.0106 237.42 91.7424 237.42 91.4741C249.446 110.52 256.279 133.053 256.279 157.196C256.826 224.796 201.067 279.519 132.462 279.519Z" fill="#FFF193" data-v-4c4f7eb1=""></path></clipPath></defs> <circle id="Ellipse 639" cx="137.5" cy="163.734" r="129.5" fill="#FFD249" data-v-4c4f7eb1=""></circle> <g id="ball" data-v-4c4f7eb1=""><path id="Vector" d="M47.38 118.122C45.8855 118.122 44.1774 117.701 42.8964 117.069C38.4127 114.541 36.7046 108.852 39.0532 104.428C53.7853 77.6719 79.1929 57.4469 108.871 49.0198C113.781 47.5451 119.119 50.4945 120.614 55.3401C122.108 60.1857 119.119 65.4527 114.208 66.9274C89.4413 74.0904 68.0904 90.9446 55.7069 113.487C53.9988 116.226 50.7962 118.122 47.38 118.122Z" fill="#FFF193" data-v-4c4f7eb1=""></path> <path id="Vector_2" d="M37 141.945C31.4681 141.945 27 137.51 27 132.019C27 126.528 31.4681 122.093 37 122.093C42.5319 122.093 47 126.528 47 132.019C47 137.51 42.5319 141.945 37 141.945Z" fill="#FFF193" data-v-4c4f7eb1=""></path> <path id="Vector_3" d="M8.37169 119.372C7.55171 121.25 7.00505 123.128 6.4584 125.006V125.274V125.542C5.91174 127.42 5.36509 129.298 4.81843 131.175C4.81843 131.444 4.81843 131.444 4.81843 131.712C4.27178 133.858 3.72513 135.736 3.4518 137.614C3.4518 137.882 3.4518 137.882 3.4518 138.15C2.63182 139.491 2.08516 141.369 1.81184 143.783V144.052C1.53851 145.929 1.26518 147.807 0.991856 150.221C0.718529 152.367 0.445202 154.513 0.445202 156.659V157.464C0.445202 158.805 0.171875 159.878 0.171875 161.22C0.171875 162.829 0.171875 164.439 0.171875 165.78C0.171875 202.799 14.9315 237.672 41.7176 263.96C68.5036 290.249 104.036 304.735 141.755 304.735C179.474 304.735 215.007 290.249 241.793 263.96C268.579 237.672 283.339 202.799 283.339 165.78C283.339 141.369 276.779 117.495 264.479 96.5709C262.839 93.6201 260.926 90.6693 259.013 87.9868C256.826 85.036 254.639 82.0853 252.453 79.1345C255.733 77.525 259.013 75.9155 262.566 75.1107C269.399 73.5012 290.172 71.3552 290.172 71.3552C290.172 71.3552 269.126 69.7457 262.293 68.1361C257.646 66.7949 252.999 64.6489 248.9 62.2346C244.526 59.2838 240.426 55.7965 237.146 51.5045C233.593 46.4077 230.86 41.0426 229.493 35.1411C227.58 26.557 225.667 0 225.667 0C225.667 0 223.753 26.557 221.84 35.1411C220.747 39.9696 218.834 44.2617 216.1 48.5537C193.961 34.8728 167.995 27.3618 141.482 27.3618H139.842C139.295 27.3618 138.749 27.3618 138.475 27.3618H137.655C137.109 27.3618 136.562 27.3618 136.015 27.3618C135.742 27.3618 135.469 27.3618 134.922 27.3618C89.2765 29.5078 47.4575 53.3823 22.5847 90.9376V91.2059C21.4914 92.8154 20.6714 94.4249 19.5781 96.0344C19.5781 96.0344 19.5781 96.3027 19.3048 96.3027C18.2115 97.9122 17.3915 99.5217 16.2982 101.399L16.0248 101.668C15.2049 103.277 14.3849 105.155 13.2916 107.033C13.2916 107.033 13.2916 107.301 13.0182 107.301C12.1983 109.179 11.3783 110.788 10.5583 112.666C10.5583 112.934 10.285 112.934 10.285 113.203C9.465 115.08 8.91834 116.69 8.09836 118.568L8.37169 119.372ZM132.462 279.519C99.9363 279.519 69.3236 267.179 46.0908 245.183C22.5847 222.918 9.19167 193.41 8.09836 161.756C8.09836 160.683 8.09836 159.342 8.37169 158.269V157.464C8.64501 155.318 8.64501 153.44 8.91834 151.294C9.19167 149.148 9.465 147.271 9.73832 145.393C9.73832 145.125 9.73832 145.125 9.73832 144.856C10.0116 142.71 10.5583 140.833 10.8316 139.223C10.8316 139.223 10.8316 139.223 10.8316 138.955C11.105 137.345 11.6516 135.468 12.1983 133.322V133.053C12.7449 131.175 13.2916 129.298 13.8382 127.688V127.42V127.152C14.3849 125.542 14.9315 123.664 15.7515 121.787L16.0248 121.518C16.8448 119.641 17.3915 118.031 18.2115 116.153V115.885C19.0314 114.544 19.8514 112.666 20.6714 111.057C20.6714 111.057 20.6714 111.057 20.6714 110.788C20.6714 110.788 20.6714 110.788 20.6714 110.52C21.4914 108.642 22.3114 107.033 23.1313 105.423C23.1313 105.423 23.1313 105.155 23.4047 105.155C24.498 103.277 25.318 101.668 26.1379 100.326C26.1379 100.326 26.1379 100.326 26.1379 100.058C27.2313 98.4487 28.0512 96.8392 29.1445 95.2296C29.1445 95.2296 29.1445 94.9614 29.4179 94.9614C52.924 59.5521 92.2831 37.2871 135.195 35.4093C135.469 35.4093 136.015 35.4093 136.289 35.4093C136.562 35.4093 137.109 35.4093 137.382 35.4093H137.929C163.895 35.9458 187.674 44.5299 206.807 58.7473C205.167 60.0886 203.801 61.1616 202.161 62.2346C198.061 64.9171 193.414 66.7949 188.768 68.1361C181.934 69.7457 161.162 71.8917 161.162 71.8917C161.162 71.8917 181.934 74.0377 188.768 75.6472C193.414 76.9885 198.061 79.1345 202.161 81.5488C206.534 84.4995 210.634 87.9868 213.914 92.2789C217.467 97.3757 220.2 102.741 221.567 108.642C223.48 117.226 225.393 143.783 225.393 143.783C225.393 143.783 227.307 117.226 229.22 108.642C230.86 102.741 233.32 97.1074 236.873 92.2789C237.146 92.0106 237.42 91.7424 237.42 91.4741C249.446 110.52 256.279 133.053 256.279 157.196C256.826 224.796 201.067 279.519 132.462 279.519Z" fill="#FFF193" data-v-4c4f7eb1=""></path></g> <g clip-path="url(#ball-mask)" data-v-4c4f7eb1=""><rect transform="rotate(-20 0 0)" filter="url(#blur-filter)" x="-200" y="-10" fill="white" width="100" height="370" data-v-4c4f7eb1=""></rect></g>
</svg>