<svg viewBox="0 0 2713 3360" fill="none" xmlns="http://www.w3.org/2000/svg" class="rays-svg position-relative" data-v-0487c446="" data-v-7743ff1f=""><defs data-v-0487c446=""><path id="top-path" d="M113,825C113,1242.8 626.306,1581.5 1259.5,1581.5C1892.69,1581.5 2406,1242.8 2406,825" stroke="black" data-v-0487c446=""></path> <path id="bottom-path" d="M110,924C110,1341.8 623.306,1680.5 1256.5,1680.5C1889.69,1680.5 2403,1341.8 2403,924" stroke="black" data-v-0487c446=""></path> <path id="magic-path" d="M1842.5,1578L1842.5,1578C1842.5,1355.79 1624.33,1175.5 1355,1175.5C1085.67,1175.5 867.5,1355.79 867.5,1578C867.5,1800.21 1085.67,1980.5 1355,1980.5C1624.33,1980.5 1842.5,1800.21 1842.5,1578" stroke="black" data-v-0487c446=""></path> <path id="transform-path" d="M243,1580.2C302.275,1476.11 389.157,1381.52 498.683,1301.85C608.21,1222.18 738.237,1158.98 881.341,1115.86C1024.44,1072.74 1177.82,1050.55 1332.72,1050.55C1487.61,1050.55 1640.99,1072.74 1784.09,1115.86C1927.19,1158.98 2057.22,1222.18 2166.75,1301.85C2276.28,1381.52 2363.16,1476.11 2422.43,1580.2" stroke="black" data-v-0487c446=""></path></defs> <g id="rays" data-v-0487c446=""><path id="Vector 656" opacity="0.4" d="M383.461 2274L1052.96 1651.5L1073.46 1709L383.461 2779.5V2274Z" fill="#FFB800" class="ray" data-v-0487c446=""></path> <path id="Vector 658" opacity="0.4" d="M2338.46 2263L1668.96 1625.5L1638.61 1684.5L2328.61 2755L2338.46 2263Z" fill="#FFB800" class="ray" data-v-0487c446=""></path> <path id="Vector 657" opacity="0.4" d="M307.461 2965.5L1075.68 1724.05L1200.77 1783.58L1003.46 3021.5L398.458 3348L307.461 2965.5Z" fill="#FFB800" class="ray" data-v-0487c446=""></path> <path id="Vector 660" opacity="0.4" d="M1097.96 2684.5L1221.96 1716.5L1500.46 1742L1622.46 2825L699.919 3359L1097.96 2684.5Z" fill="#FFB800" class="ray" data-v-0487c446=""></path> <path id="Vector 659" opacity="0.4" d="M2391.96 2924.5L1636.39 1699.55L1511.3 1759.08L1708.61 2997L2313.61 3323.5L2391.96 2924.5Z" fill="#FFB800" class="ray" data-v-0487c446=""></path></g> <g id="overlay" data-v-0487c446="" style="translate: none; rotate: none; scale: none; transform-origin: 0px 0px;" data-svg-origin="0 1657" transform="matrix(1,0,0,1,0,1703)"><path id="overlay" d="M2713 1657H0V3360H2713V1657Z" fill="#FFD864" data-v-0487c446=""></path></g> <g id="arrow" data-v-0487c446=""><path id="Rectangle 330" d="M1358.46 2068L1358.46 2087.13C1358.46 2087.68 1358.01 2088.13 1357.46 2088.13L1350.22 2088.13C1349.66 2088.13 1349.22 2087.68 1349.22 2087.13L1349.22 2068C1349.22 2067.45 1349.66 2067 1350.22 2067L1357.46 2067C1358.01 2067 1358.46 2067.45 1358.46 2068Z" fill="#F7B100" data-v-0487c446=""></path> <path id="Polygon 1" d="M1352.87 2106.43C1353.25 2107.1 1354.22 2107.1 1354.6 2106.43L1369.59 2080.46C1370.11 2079.58 1369.11 2078.59 1368.23 2079.1L1354.24 2087.18C1353.93 2087.36 1353.55 2087.36 1353.24 2087.18L1339.24 2079.1C1338.36 2078.59 1337.36 2079.58 1337.88 2080.46L1352.87 2106.43Z" fill="#F7B100" data-v-0487c446=""></path></g> <g id="headline" class="rays-headline" data-v-0487c446=""><g id="second-headline" data-v-0487c446="" style="translate: none; rotate: none; scale: none; transform-origin: 0px 0px;" data-svg-origin="461.04486083984375 750.5591430664062" transform="matrix(1,0,0,1,0,0)"><text fill="#FFB800" data-v-0487c446=""><textPath startOffset="50%" text-anchor="middle" xlink:href="#transform-path" class="pp-bold transformFont" data-v-0487c446="">TRANSFORMED</textPath></text></g> <path id="We've" d="M1020.49 492H1068.09L1087.13 700.08L1087.81 708.24H1088.15L1088.83 700.08L1112.63 492H1170.43L1193.89 700.08L1194.91 708.24H1195.25L1195.93 700.08L1214.63 492H1262.23L1227.21 764H1162.61L1142.55 567.14L1141.53 558.3L1140.51 567.14L1120.45 764H1055.51L1020.49 492ZM1275.38 492H1380.1V531.78H1323.32V608.28H1377.04V647.72H1323.32V724.22H1380.1V764H1275.38V492ZM1420.32 492V577H1395.84V492H1420.32ZM1430.54 492H1479.5L1499.22 713L1500.24 720.82L1500.92 713L1520.64 492H1569.26L1533.22 764H1466.58L1430.54 492ZM1582.51 492H1687.23V531.78H1630.45V608.28H1684.17V647.72H1630.45V724.22H1687.23V764H1582.51V492Z" fill="#FFB800" data-v-0487c446=""></path></g> <g id="ball" data-v-0487c446="" style="translate: none; rotate: none; scale: none; transform-origin: 0px 0px;" data-svg-origin="924.9600219726562 1012" transform="matrix(1,0,0,1,0,0)"><path id="Ellipse 215" d="M1352.46 1867C1588.56 1867 1779.96 1675.6 1779.96 1439.5C1779.96 1203.4 1588.56 1012 1352.46 1012C1116.36 1012 924.96 1203.4 924.96 1439.5C924.96 1675.6 1116.36 1867 1352.46 1867Z" fill="#3F3834" stroke="#A28C7F" stroke-width="20" data-v-0487c446=""></path> <path id="ball-star" d="M1448.96 1250.32C1564.96 1250.32 1564.96 1178.6 1564.96 1112C1564.96 1178.6 1564.96 1250.32 1680.96 1250.32C1564.96 1250.32 1564.96 1342.53 1564.96 1404C1564.96 1342.53 1564.96 1250.32 1448.96 1250.32Z" fill="#F3EFE6" data-v-0487c446="" style="transform-origin: 0px 0px; translate: none; rotate: none; scale: none;" data-svg-origin="1564.9599609375 1258" transform="matrix(1,0,0,1,0,0)"></path></g> <g id="ribbon" data-v-0487c446="" style="translate: none; rotate: none; scale: none; transform-origin: 0px 0px;" data-svg-origin="132.40199279785156 1074.8699951171875" transform="matrix(1,0,0,1,0,0)"><g id="ribbon-sides" data-v-0487c446=""><path id="Vector 637" d="M132.402 1228.07C203.772 1300.99 428.548 1373.65 532.014 1400.87C579.272 1428.55 746.37 1203.39 724.76 1162.19C705.068 1124.65 584.811 1107.44 527.785 1096.28C478.487 1086.62 241.511 1095.79 190.537 1099.07C222.842 1130.08 349.391 1191.13 386.133 1223.56C345.185 1214.38 188.291 1212.66 132.402 1228.07Z" fill="#F0B1C1" data-v-0487c446=""></path> <path id="Vector 640" d="M2560.76 1253.75C2536.21 1276.09 2261.04 1371.52 2126.52 1416.44C2071.3 1435.1 1974.71 1263.05 1933.32 1174.69C1982.46 1160.67 2101.21 1127.6 2183.04 1107.49C2285.32 1082.36 2401.56 1085.67 2509.71 1074.87C2467.48 1121.35 2429.41 1155.16 2332.96 1217C2430.35 1187.39 2506.82 1249.19 2560.76 1253.75Z" fill="#F0B1C1" data-v-0487c446=""></path></g> <g id="ribbon-middle" data-v-0487c446=""><path id="Vector 638" d="M725.773 1170.08L737.133 1348.49C653.406 1338.01 514.247 1197.3 531.269 1182.6C543.825 1171.76 718.125 1190.98 725.773 1170.08Z" fill="#BF4C6B" data-v-0487c446=""></path> <path id="Vector 639" d="M1926.05 1178.97L1938.47 1374.01C2013.1 1351.86 2121.43 1181.27 2104.12 1167.51C2091.34 1157.36 1949.83 1163.59 1926.05 1178.97Z" fill="#BF4C6B" data-v-0487c446=""></path> <path id="Vector 636" d="M1836.96 1649C1990.72 1597.05 2136.66 1510.41 2147.95 1494.5C2169.96 1463.5 2147.96 1378.5 2147.96 1378.5C2147.96 1378.5 2130.49 1238.61 2121.59 1203.91C2110.98 1162.56 2103.7 1163.85 2094.34 1171.06C2004.21 1240.54 1786.64 1391.56 1374.72 1432.94C919.815 1478.64 685.54 1323.69 605.842 1266.85C567.279 1239.34 538.522 1211.68 529.461 1185C514.466 1257.85 496.585 1376.56 491.085 1444.35C485.596 1511.98 521.294 1542.36 544.797 1562.36L544.955 1562.5C568.455 1576.5 612.433 1625.67 850.455 1688C1209.45 1782 1637.55 1716.36 1836.96 1649Z" fill="#F4B9C8" data-v-0487c446=""></path></g> <g id="ribbon-text" class="ribbon-text" data-v-0487c446="" style="opacity: 1;"><g id="Group 316124050" data-v-0487c446=""><g id="top-ribbon-text" data-v-0487c446=""><text fill="#BD3257" data-v-0487c446=""><textPath startOffset="52%" text-anchor="middle" xlink:href="#top-path" class="pp-bold ribbonFont" data-v-0487c446="">THE ALL⁃AMERICAN TREAT WITH INVENTIVE,</textPath></text></g> <g id="bottom-ribbon-text" class="ribbon-text" data-v-0487c446=""><text fill="#BD3257" data-v-0487c446=""><textPath startOffset="52%" text-anchor="middle" xlink:href="#bottom-path" class="pp-bold ribbonFont" data-v-0487c446="">CRAVEWORTHY ASIAN⁃INSPIRED FLAVORS</textPath></text></g></g></g></g> <g id="caption" data-v-0487c446="" style="translate: none; rotate: none; scale: none; transform-origin: 0px 0px; opacity: 1;" data-svg-origin="966.1480712890625 1785.5565185546875" transform="matrix(1,0,0,1,0,0)"><text fill="#BF4C6B" data-v-0487c446=""><textPath startOffset="75%" text-anchor="middle" xlink:href="#magic-path" class="pp-bold magicFont" data-v-0487c446="">THE CHEWY MAGIC OF BOBA</textPath></text></g></svg>