<svg viewBox="0 0 498 654" fill="none" xmlns="http://www.w3.org/2000/svg" class="small-bubbles svg svg-1" data-v-8390fb7c=""><g id="Group 316124769" data-v-8390fb7c=""><g id="pink-bubble" data-v-8390fb7c="" style="transform-origin: 0px 0px; translate: none; rotate: none; scale: none; opacity: 1;" data-svg-origin="170 196.69700622558594" transform="matrix(1,0,0,1,0,0)"><ellipse id="Ellipse 617" cx="170" cy="196.697" rx="170" ry="170.697" fill="#FDEEF2" data-v-8390fb7c=""></ellipse><ellipse id="Ellipse 614" cx="170.175" cy="196.873" rx="165.637" ry="166.335" fill="#FDDDE5" data-v-8390fb7c=""></ellipse><ellipse id="Ellipse 613" cx="169.999" cy="196.697" rx="159.179" ry="159.877" fill="#F4B9C8" data-v-8390fb7c=""></ellipse></g><g id="black-bubble" data-v-8390fb7c="" style="transform-origin: 0px 0px; translate: none; rotate: none; scale: none; opacity: 1;" data-svg-origin="16.65820026397705 316.52500915527344" transform="matrix(1,0,0,1,0,0)"><circle id="Ellipse 222" cx="16.6582" cy="316.525" r="10.748" fill="#473D36" data-v-8390fb7c=""></circle><path id="Vector 579" d="M16.8286 313.392C20.7525 313.392 20.7525 311.213 20.7525 309.189C20.7525 311.213 20.7525 313.392 24.6764 313.392C20.7525 313.392 20.7525 316.193 20.7525 318.061C20.7525 316.193 20.7525 313.392 16.8286 313.392Z" fill="#F3EFE6" data-v-8390fb7c=""></path></g><g id="black-bubble" class="black-bubble1" data-v-8390fb7c="" style="transform-origin: 0px 0px; translate: none; rotate: none; scale: none; opacity: 1;" data-svg-origin="72.10759544372559 58.107595443725586" transform="matrix(1,0,0,1,0,0)"><circle id="Ellipse 595" cx="72.1076" cy="58.1076" r="19.1076" fill="#473D36" data-v-8390fb7c=""></circle><path id="Vector 566" d="M73.1313 51.6426C81.4909 51.6426 81.4909 47.0333 81.4909 42.7533C81.4909 47.0333 81.4909 51.6426 89.8505 51.6426C81.4909 51.6426 81.4909 57.5689 81.4909 61.5197C81.4909 57.5689 81.4909 51.6426 73.1313 51.6426Z" fill="#F3EFE6" data-v-8390fb7c=""></path></g><g id="pink-bubble" data-v-8390fb7c="" style="transform-origin: 0px 0px; translate: none; rotate: none; scale: none; opacity: 1;" data-svg-origin="362 85.5" transform="matrix(1,0,0,1,0,0)"><ellipse id="Ellipse 644" cx="362" cy="85.5" rx="85" ry="85.5" fill="#FDDDE5" data-v-8390fb7c=""></ellipse><circle id="Ellipse 648" cx="362.5" cy="85.5" r="74.5" fill="#F4B9C8" data-v-8390fb7c=""></circle></g><g id="pink-bubble" data-v-8390fb7c="" style="transform-origin: 0px 0px; translate: none; rotate: none; scale: none; opacity: 1;" data-svg-origin="397.5 212.5" transform="matrix(1,0,0,1,0,0)"><circle id="Ellipse 646" cx="397.5" cy="212.5" r="47.5" fill="#FDDDE5" data-v-8390fb7c=""></circle><ellipse id="Ellipse 647" cx="397.5" cy="212.245" rx="39.8387" ry="40.0941" fill="#F4B9C8" data-v-8390fb7c=""></ellipse></g><g id="pink-bubble" data-v-8390fb7c="" style="transform-origin: 0px 0px; translate: none; rotate: none; scale: none; opacity: 1;" data-svg-origin="356 512" transform="matrix(1,0,0,1,0,0)"><circle id="Ellipse 649" cx="356" cy="512" r="142" fill="#FDEEF2" data-v-8390fb7c=""></circle><circle id="Ellipse 206" cx="356" cy="512.001" r="133.875" fill="#FDDDE5" data-v-8390fb7c=""></circle><circle id="Ellipse 620" cx="356" cy="512.002" r="125.749" fill="#F4B9C8" data-v-8390fb7c=""></circle></g><g id="black-bubble" data-v-8390fb7c="" style="transform-origin: 0px 0px; translate: none; rotate: none; scale: none; opacity: 1;" data-svg-origin="397.12303161621094 444.12303161621094" transform="matrix(1,0,0,1,0,0)"><circle id="Ellipse 217" cx="397.123" cy="444.123" r="14.1226" fill="#473D36" data-v-8390fb7c=""></circle><path id="Vector 577" d="M396.542 439.508C402.539 439.508 402.539 436.182 402.539 433.094C402.539 436.182 402.539 439.508 408.537 439.508C402.539 439.508 402.539 443.785 402.539 446.636C402.539 443.785 402.539 439.508 396.542 439.508Z" fill="#F3EFE6" data-v-8390fb7c=""></path></g><ellipse id="pink-bubble" cx="235" cy="384" rx="93" ry="90" fill="#F4B9C8" data-v-8390fb7c="" style="transform-origin: 0px 0px; translate: none; rotate: none; scale: none; opacity: 1;" data-svg-origin="235 383.9999694824219" transform="matrix(1,0,0,1,0,0)"></ellipse><g id="pink-bubble" data-v-8390fb7c="" style="transform-origin: 0px 0px; translate: none; rotate: none; scale: none; opacity: 1;" data-svg-origin="155 519.5" transform="matrix(1,0,0,1,0,0)"><ellipse id="Ellipse 610" cx="155" cy="519.5" rx="67" ry="68.5" fill="#FDEEF2" data-v-8390fb7c=""></ellipse><ellipse id="Ellipse 624" cx="155" cy="519.5" rx="63" ry="63.5" fill="#FDDDE5" data-v-8390fb7c=""></ellipse><ellipse id="Ellipse 625" cx="155" cy="519.5" rx="59" ry="58.5" fill="#F4B9C8" data-v-8390fb7c=""></ellipse></g><g id="pink-bubble" data-v-8390fb7c="" style="transform-origin: 0px 0px; translate: none; rotate: none; scale: none; opacity: 1;" data-svg-origin="105.5 396.4999694824219" transform="matrix(1,0,0,1,0,0)"><circle id="Ellipse 815" cx="105.5" cy="396.5" r="36.5" fill="#FDDDE5" data-v-8390fb7c=""></circle><circle id="Ellipse 816" cx="105.5" cy="396.5" r="33.5" fill="#F4B9C8" data-v-8390fb7c=""></circle></g><g id="black-bubble" data-v-8390fb7c="" style="transform-origin: 0px 0px; translate: none; rotate: none; scale: none; opacity: 1;" data-svg-origin="354.5 308.5" transform="matrix(1,0,0,1,0,0)"><circle id="Ellipse 222_2" cx="354.5" cy="308.5" r="19.5" fill="#473D36" data-v-8390fb7c=""></circle><path id="Vector 579_2" d="M354.81 302.814C361.929 302.814 361.929 298.861 361.929 295.19C361.929 298.861 361.929 302.814 369.048 302.814C361.929 302.814 361.929 307.897 361.929 311.286C361.929 307.897 361.929 302.814 354.81 302.814Z" fill="#F3EFE6" data-v-8390fb7c=""></path></g><g id="Group 316124190" data-v-8390fb7c=""><g id="pink-bubble" data-v-8390fb7c="" style="transform-origin: 0px 0px; translate: none; rotate: none; scale: none; opacity: 1;" data-svg-origin="69 556" transform="matrix(1,0,0,1,0,0)"><circle id="Ellipse 692" cx="69" cy="556" r="32" fill="#FDEEF2" data-v-8390fb7c=""></circle><circle id="Ellipse 631" cx="68.9999" cy="556" r="28.2353" fill="#FDDDE5" data-v-8390fb7c=""></circle><circle id="Ellipse 225" cx="69" cy="556.004" r="24.2017" fill="#F4B9C8" data-v-8390fb7c=""></circle></g><g id="pink-bubble" data-v-8390fb7c="" style="transform-origin: 0px 0px; translate: none; rotate: none; scale: none; opacity: 1;" data-svg-origin="88 480" transform="matrix(1,0,0,1,0,0)"><circle id="Ellipse 687" cx="88" cy="480" r="16" fill="#FDDDE5" data-v-8390fb7c=""></circle><circle id="Ellipse 688" cx="88" cy="480" r="13" fill="#F4B9C8" data-v-8390fb7c=""></circle></g></g><g id="pink-bubble" data-v-8390fb7c="" style="transform-origin: 0px 0px; translate: none; rotate: none; scale: none; opacity: 1;" data-svg-origin="200 602" transform="matrix(1,0,0,1,0,0)"><circle id="Ellipse 691" cx="200" cy="602" r="28" fill="#FDEEF2" data-v-8390fb7c=""></circle><circle id="Ellipse 689" cx="200" cy="602" r="24" fill="#FDDDE5" data-v-8390fb7c=""></circle><circle id="Ellipse 690" cx="200" cy="602.004" r="18.6704" fill="#F4B9C8" data-v-8390fb7c=""></circle></g><g id="black-bubble" data-v-8390fb7c="" style="transform-origin: 0px 0px; translate: none; rotate: none; scale: none; opacity: 1;" data-svg-origin="386.4999694824219 12.5" transform="matrix(1,0,0,1,0,0)"><circle id="Ellipse 216" cx="386.5" cy="12.5" r="5.5" fill="#473D36" data-v-8390fb7c=""></circle><path id="Vector 576" d="M385.941 10.9187C388.412 10.9187 388.412 9.5482 388.412 8.27563C388.412 9.5482 388.412 10.9187 390.883 10.9187C388.412 10.9187 388.412 12.6807 388.412 13.8553C388.412 12.6807 388.412 10.9187 385.941 10.9187Z" fill="#F3EFE6" data-v-8390fb7c=""></path></g></g></svg>