<?xml version="1.0" encoding="utf-8"?>
<!-- Generator: Adobe Illustrator 19.0.0, SVG Export Plug-In . SVG Version: 6.00 Build 0)  -->
<svg version="1.1" id="Layer_1" xmlns="http://www.w3.org/2000/svg" xmlns:xlink="http://www.w3.org/1999/xlink" x="0px" y="0px"
	 viewBox="1207.5 -1284 2391 1153.8" style="enable-background:new 1207.5 -1284 2391 1153.8;" xml:space="preserve">
<style type="text/css">
	.st0{fill:#FDDDE5;}
	.st1{fill:#FFD864;}
</style>
<path id="Ellipse_684" class="st0" d="M3598.5-125c0-121.3-27.9-476.9-88.1-589c-60.2-112-148.3-213.8-259.5-299.6
	c-111.2-85.7-243.1-153.8-388.3-200.2c-145.2-46.4-300.9-70.3-458.1-70.3c-157.2,0-312.9,23.9-458.1,70.3
	c-145.2,46.4-277.2,114.4-388.3,200.2c-111.2,85.8-199.3,187.6-259.5,299.6c-60.2,112-91.1,556.7-91.1,677.9l1197-324.5L3598.5-125z
	"/>
<path id="Ellipse_685" class="st1" d="M3598.5-87.1c0-122.8-27.9-483-88.1-596.5c-60.2-113.5-148.3-216.6-259.5-303.4
	c-111.2-86.9-243.1-155.7-388.3-202.7c-145.2-47-300.9-71.2-458.1-71.2c-157.2,0-312.9,24.2-458.1,71.2
	c-145.2,47-277.2,115.9-388.3,202.7c-111.2,86.9-199.3,190-259.5,303.4c-60.2,113.5-91.1,563.8-91.1,686.6l1197-328.7L3598.5-87.1z"
	/>
<rect id="Rectangle_2107" x="1445.5" y="-870" class="st1" width="1926" height="2861"/>
</svg>
