<svg viewBox="0 0 2713 3360" fill="none" xmlns="http://www.w3.org/2000/svg" class="arc-svg position-absolute center-x" data-v-7743ff1f=""><path id="Ellipse 684" d="M2547.46 1159.03C2547.46 1037.77 2519.55 682.099 2459.39 570.061C2399.23 458.023 2311.06 356.223 2199.91 270.472C2088.75 184.722 1956.8 116.701 1811.57 70.2935C1666.34 23.8857 1510.68 -5.30085e-06 1353.48 0C1196.29 5.30085e-06 1040.63 23.8858 895.403 70.2935C750.174 116.701 618.215 184.722 507.061 270.472C395.907 356.223 307.735 458.023 247.579 570.061C187.423 682.1 156.461 1126.73 156.461 1248L1353.48 923.45L2547.46 1159.03Z" fill="#FDDDE5" data-v-7743ff1f=""></path><path id="Ellipse 685" d="M2547.46 1196.89C2547.46 1074.07 2519.55 713.844 2459.39 600.37C2399.23 486.895 2311.06 383.79 2199.91 296.94C2088.75 210.09 1956.8 141.197 1811.57 94.1947C1666.34 47.192 1510.68 23 1353.48 23C1196.29 23 1040.63 47.192 895.403 94.1947C750.174 141.197 618.215 210.09 507.061 296.94C395.907 383.79 307.735 486.895 247.579 600.37C187.423 713.844 156.461 1164.18 156.461 1287L1353.48 958.29L2547.46 1196.89Z" fill="#FFD864" data-v-7743ff1f=""></path><rect id="Rectangle 2107" x="394.461" y="414" width="1926" height="2861" fill="#FFD864" data-v-7743ff1f=""></rect></svg>